<?xml version="1.0" encoding="utf-8"?>
<!-- Generator: Adobe Illustrator 25.4.1, SVG Export Plug-In . SVG Version: 6.00 Build 0)  -->
<svg version="1.1" id="Layer_1" xmlns="http://www.w3.org/2000/svg" xmlns:xlink="http://www.w3.org/1999/xlink" x="0px" y="0px"
	 viewBox="0 0 165.4 48" style="enable-background:new 0 0 165.4 48;" xml:space="preserve">
<style type="text/css">
	.st0{fill:#887E71;}
	.st1{fill:#FD961F;}
	.st2{fill:#747068;}
	.st3{fill:#212A31;}
	.st4{fill:#FD951E;}
	.st5{fill:#232B33;}
	.st6{fill:#232C33;}
	.st7{fill:#726F68;}
	.st8{fill:#273038;}
	.st9{fill:#8C8376;}
	.st10{fill:#262E35;}
	.st11{fill:#FCF7EF;}
	.st12{fill:#6F6C64;}
	.st13{fill:#FCF7F1;}
	.st14{fill:#283139;}
	.st15{fill:#EBECEC;}
	.st16{fill:#E9D9C4;}
	.st17{fill:#232B32;}
	.st18{fill:#182026;}
	.st19{fill:#7A7165;}
	.st20{fill:#E4E5E5;}
	.st21{fill:#262D34;}
	.st22{fill:#232A31;}
	.st23{fill:#252E36;}
	.st24{fill:#8E8578;}
	.st25{fill:#FB8C14;}
	.st26{fill:#877E71;}
	.st27{fill:#DBDCDE;}
	.st28{fill:#96999C;}
	.st29{fill:#EBE0D1;}
	.st30{fill:#2E3841;}
	.st31{fill:#FC9D2E;}
	.st32{fill:#E1E2E3;}
	.st33{fill:#F1EFED;}
	.st34{fill:#DBDCDC;}
	.st35{fill:#686359;}
	.st36{fill:#A7A29B;}
	.st37{fill:#646057;}
	.st38{fill:#FEF1E2;}
	.st39{fill:#D2D0CE;}
	.st40{fill:#1B2228;}
	.st41{fill:#141B20;}
	.st42{fill:#FBC88D;}
	.st43{fill:#D9DADB;}
	.st44{fill:#FC941E;}
	.st45{fill:#FA8C14;}
	.st46{fill:#A19A8C;}
	.st47{fill:#FEF9F3;}
	.st48{fill:#F3EADF;}
	.st49{fill:#FB880D;}
	.st50{fill:#FB8711;}
	.st51{fill:#ABA7A2;}
	.st52{fill:#FD8F18;}
	.st53{fill:#FC8C15;}
	.st54{fill:#B6B8BA;}
	.st55{fill:#28323A;}
	.st56{fill:#71767A;}
	.st57{fill:#FD992A;}
	.st58{fill:#F6F3F0;}
	.st59{fill:#FBF9F6;}
	.st60{fill:#20292F;}
	.st61{fill:#FDFDFD;}
	.st62{font-family:'Ethnocentric-Regular';}
	.st63{font-size:29.1272px;}
</style>
<g>
	<g>
		<path class="st0" d="M29.4,21.2c0-0.1-0.1-0.2,0-0.2c0.5-2.5-0.8-3.8-2.8-4.8c-1.7-0.8-3.3-1.9-4.9-2.9c-0.4-1-0.2-2.1-0.2-3.2
			c0-1.2,0-2.5,0-3.7c0.1-0.6,0.4-0.9,1-0.6c0.7,0.3,1,0,1.6-0.3c0.8-0.5,1.2-1.6,2.3-1.7c1.2,0.6,2.3,1.2,3.3,2
			c0,0.2-0.1,0.3-0.2,0.4c-0.6,0.7-0.5,0.9,0.3,1.2c0.9,0.3,1.7,0,2.6,0c2.1,1.2,4.2,2.3,6.2,3.6c1.7,1.1,1.5,2.8,1.4,4.5
			c-0.1,0.1-0.2,0.2-0.3,0.2c-1.7,0.9-3.4,1.9-5.1,2.9c-0.5,0.3-1,0.5-1.5,0.7c-0.4,0.2-0.8,0.5-1.2,0.8
			C31,20.5,30.5,21.6,29.4,21.2z"/>
		<path class="st1" d="M29.5,41c0,0.4-0.3,0.5-0.5,0.6c-2.4,1.4-4.8,2.9-7.2,4.3C21.7,46,21.5,46,21.3,46c-0.1-0.1-0.1-0.3,0-0.4
			c-0.1-1.6,0-3.2-0.2-4.8c-0.1-0.3-0.1-0.5,0-0.8c0.3-0.7,1-0.9,1.5-1.3c2.2-1.5,4.5-2.7,6.5-4.3c-1.9,1-3.7,2.2-5.6,3.4
			c-0.4,0.2-0.7,0.5-1.2,0.5c-0.1,0-0.2-0.1-0.4-0.1c-0.7-0.3-0.8-0.9-0.8-1.6c0-1.1,0.1-2.2-0.1-3.3c0-0.1,0-0.3,0.1-0.4
			c1.9-1.1,3.8-2.3,5.8-3.4c1.2,0.1,1.9-0.9,2.9-1.1c0.3,0,0.6,0,0.8,0.2c2.6,1.7,5.5,2.9,8.1,4.8c0.8,0.4,0.7,1,0.3,1.7
			c-0.3,0.5-0.6,0.8-1.1,1.1c-2.4,1.4-4.8,2.8-7.2,4.3c-0.3,0.2-0.6,0.3-0.9,0.2c-0.2-0.1-0.3-0.2-0.5-0.1
			C29.4,40.7,29.4,40.8,29.5,41z"/>
		<path class="st2" d="M16.8,37c-0.3,0.1-0.5-0.1-0.7-0.2c-0.9-0.2-1.6-0.8-2.4-1.2c-0.1,0-0.1-0.1-0.1-0.1c0,0.1,0,0.1,0.1,0.2
			c0.7,0.6,1.7,0.7,2.2,1.5c-1,1.2-2.5,1.6-3.7,2.5c-1.1,0.8-1.9,0.8-3.1,0c-1.8-1.3-3.8-2.3-5.8-3.5c-0.4-0.2-0.8-0.5-1.1-0.9
			c-0.7-1-0.6-1.4,0.5-2c2.8-1.5,5.6-3,8.3-4.6c0.7-0.4,1.3-0.4,1.9,0.1c2.2,1.4,4.5,2.8,6.8,4.2c0.2,0.3,0.3,0.6,0.2,0.9
			c-0.2,0.4-0.6,0.3-0.9,0.4c-0.8,0.5-1.7,0.8-1.5,2C17.5,36.7,17.3,37,16.8,37z"/>
		<path class="st3" d="M11.7,6.7c0.1-0.6,0.5-1.1,1.2-1.2c0.7-0.2,1.2,0.3,1.5,0.7c0.4,0.7,1.2,0.9,1.8,1.4c0.2,0.1,0.7,0,0.7,0.5
			c-0.6,2.6-0.7,5.4-1.8,8c-1,0.8-2.4,1.2-3.3,2.3c-0.3,1.2-0.2,2.3-0.1,3.5c0.1,0.4-0.3,0.5-0.5,0.7c-0.4,0.5-0.9,0.9-1.5,0.9
			c-1.2-0.2-2.3-0.8-3.5-1.2c-0.4-0.1-1-0.4-0.8-1.1c0.1-0.1,0.2-0.2,0.2-0.3c0.9-1.1,1.6-2.4,1.9-3.8c1.3-2.6,2.4-5.3,3.3-8.1
			C11.2,8.3,11.2,7.4,11.7,6.7z"/>
		<path class="st4" d="M29.4,21.2c1-0.1,1.5-0.9,2.3-1.2c1.4,0.2,2.5,1.2,3.7,1.8c1.4,0.7,2.8,1.3,4,2.3c0.1,0.1,0,0.3,0.1,0.4
			c0,0.1,0,0.2,0,0.2c0.1,0,0.1-0.2,0.2-0.3c0.1,0,0.2,0,0.2,0.1c0,2.7,0,5.4,0,8c-0.3,0.5-0.7,0.1-0.9,0c-1.6-0.7-3.2-1.6-4.7-2.5
			c-0.2-0.1-0.4-0.3-0.5-0.6c-0.1-0.5,0.7-0.9,0.4-1.3c-0.4-0.5-1.1-0.2-1.7-0.1c-0.3,0-0.6,0.2-0.9,0.2c-0.1,0-0.2,0-0.3,0
			c-0.7-0.4-1.3-0.8-1.9-1.3C29.3,25,29.4,23.1,29.4,21.2z"/>
		<path class="st5" d="M5.5,21.3c0.1,0.7,0.8,1,1.3,1c1.1,0.1,2,0.9,3.1,1.1c0.1,0.3-0.2,0.5-0.4,0.7s-0.4,0.3-1,0.5
			c0.7-0.2,1-0.4,1.4-0.6c0.5-0.2,0.9-0.9,1.6-0.4c0.4,1.1,0,2.2,0.3,3.3c-0.1,0.5-0.6,0.6-0.9,0.8c-2.8,1.6-5.6,3.2-8.5,4.7
			c-0.3,0.2-0.8,0.6-0.8-0.2c0.1-2.7-0.2-5.3,0.1-8c0.3,1.1,0.1,2.2,0.1,3.3c-0.1-1.1,0.2-2.2-0.1-3.3C2.9,23.1,4.2,22.2,5.5,21.3z"
			/>
		<path class="st6" d="M1.6,13c0.5-1.9,2.4-2.3,3.8-3.2c0.4-0.1,0.9-0.1,1.3,0c1.2,0.1,1.6,0.5,1.4,1.7c-0.1,0.7-0.2,1.2,0.8,1
			c0.3-0.1,0.4,0.3,0.4,0.5c-0.3,1.3-0.8,2.6-1.6,3.6c-1.5,0.5-3.1,0.5-4.7,0.7c-0.7,0.1-1.1-0.1-1.3-0.7c-0.1-1.1,0-2.2-0.1-3.4
			C1.5,13.2,1.5,13.1,1.6,13z"/>
		<path class="st7" d="M19.4,45.8c-2.4-1.4-4.8-2.9-7.2-4.3c-0.8-0.5-0.7-0.8,0-1.1c1.2-0.6,2.4-1.3,3.6-2c0.6-0.4,1.2-0.5,1.9-0.1
			c1,0.3,2,0.5,2.3,1.7c0.1,1.4,0.1,2.8,0,4.2C20,44.8,20.1,45.4,19.4,45.8z"/>
		<path class="st8" d="M9.1,13c-0.2-0.6-0.6-0.1-0.8-0.1c-0.7,0.1-0.9-0.1-0.7-0.8c0.1-0.3,0.2-0.6,0.2-0.9c0.1-0.7-0.2-1.2-1-1.1
			c-0.5,0-1,0-1.5-0.3C7.2,8.7,9,7.6,10.8,6.5c0.6,0,0.6,0.5,0.5,0.9c-0.3,1.9-1,3.7-1.8,5.4C9.4,13,9.3,13,9.1,13z"/>
		<path class="st9" d="M26.2,3.8c-0.9,0.8-1.8,1.6-2.6,2.4c-0.3,0.3-0.7,0.3-1.1,0C22.2,6,22,5.7,21.6,5.9c-0.3-0.9,0-1.7-0.2-2.6
			c0.6-0.7,1.7-0.4,2.3-1C24.6,2.8,25.5,3.2,26.2,3.8z"/>
		<path class="st10" d="M5.2,20.7c-1,0.6-2.1,1.3-3.1,1.9c-0.6-0.3-0.4-0.8-0.5-1.3c0-0.6,0-1.2,0-1.8c0-0.5,0.4-0.8,0.8-1
			c0.1-0.1,0.2-0.1,0.3-0.2c0.4-0.1,0.7-0.4,1.1-0.4c0.9,0.5,1.7,1,2.2,1.9C6.2,20.4,5.7,20.6,5.2,20.7z"/>
		<path class="st11" d="M31.3,28.1c0.1,0,0.2,0,0.2,0c0.9,0.1,1.7,0.6,2.3,1.3c1.8,1.3,3.8,2.1,5.6,3.3c0.1,0.1,0.3,0,0.4,0
			c-0.1,0.4-0.4,0.4-0.7,0.3c-0.8-0.2-0.1,0.3-0.1,0.5c-2.8-1.3-5.6-2.9-8.2-4.6C30.6,28.4,30.9,28.3,31.3,28.1z"/>
		<path class="st12" d="M16.8,37c0.2-0.2,0.5-0.4,0.4-0.9c-0.2-1.3,1.1-2.5,2.5-2.2c0.6,0.9,0.2,1.9,0.3,2.8c0,0.5,0,1,0,1.5
			c0,0.1-0.1,0.3-0.1,0.4c-0.7,0.3-1.1-0.2-1.6-0.6C17.8,37.7,17.1,37.6,16.8,37z"/>
		<path class="st13" d="M39.5,24.3c-2.3-1.3-4.6-2.5-6.9-3.8c-0.3-0.2-0.6-0.4-0.9-0.6c0.3-0.4,0.7-0.6,1.2-0.7
			c0.7,0,1.2,0.6,1.8,0.8c1.3,0.8,2.7,1.5,4,2.3c0.2,0.1,0.4,0.3,0.6,0.4c0.2,0,0.4,0,0.5,0.1c-0.2,0.6-0.4,1.2,0,1.8
			c-0.1,0-0.1-0.1-0.2-0.1C39.6,24.5,39.5,24.4,39.5,24.3z"/>
		<path class="st14" d="M16.5,7.9c-1-0.4-2-0.7-2.6-1.7c-0.2-0.3-0.7-0.5-1.1-0.7c0.8-0.5,1.7-1.1,2.5-1.6c0.7,0.9,1.6,1.6,1.9,2.7
			C17.1,7.1,17.3,7.8,16.5,7.9z"/>
		<path class="st15" d="M9.1,13c0.8-1.7,1.4-3.5,1.9-5.4c0-0.3,0.4-0.8-0.2-1.1c0.5-0.5,0.6,0.2,0.9,0.2c-0.5,3.6-2.1,6.8-3.6,10.1
			C8,17,7.9,17.1,7.9,17.3c-0.3,0.1-0.4-0.2-0.4-0.4c0-0.1,0.1-0.2,0.1-0.3C8.1,15.4,8.7,14.3,9.1,13z"/>
		<path class="st16" d="M21.3,33c0,0.1,0,0.2,0,0.3c0.2,0.9,0.1,1.8,0.1,2.7s0,1.8,0.3,2.7v0.1c-1.7,1.5-1.2,3.4-1.2,5.3
			c0,0.3,0,0.5-0.1,0.8c-0.5,0.2,0.1,0.9-0.5,1c-0.3-1.9,0-3.9-0.1-5.8c0.1-0.3,0-0.7,0.1-1c0.1-0.7,0-1.4,0.1-2.2
			c0.8-0.9,0.7-1.8,0-2.7c0-0.4-0.1-0.8,0.2-1.1C20.5,33.1,20.9,33.1,21.3,33z"/>
		<path class="st17" d="M18.2,2.9c0-0.2,0-0.5,0-0.7c0.3-0.2,0.5-0.1,0.6,0.1c0.3,0.8,0.9,1.5,1,2.3c0,0.8,0,1.6,0,2.3
			c-0.1,0.4-0.5,0.7-0.8,0.5c-0.6-0.5-1.7-0.5-1.8-1.5C17.5,4.9,17.5,3.8,18.2,2.9z"/>
		<path class="st18" d="M19.7,7.2c0-0.9,0-1.8,0-2.7c-0.2-1.1-0.7-2.3,0-3.4c0.5-0.3,0.4,0.1,0.4,0.4c0,3.7,0,7.4,0,11.1
			c0,0.3-0.1,0.6-0.4,0.6c-0.3-0.3-0.3-0.7-0.4-1c0-0.7,0-1.3,0-2C19.4,9.3,19.1,8.2,19.7,7.2z"/>
		<path class="st19" d="M21.6,3.1c0,1,0,1.9,0,2.9c0,2.4,0,4.9,0,7.3c-0.5-0.3-0.4-0.7-0.4-1.2c0-3.4,0-6.9,0-10.3
			c0-0.3-0.3-1.2,0.7-0.7C22,1.9,22,2.5,21.6,3.1z"/>
		<path class="st20" d="M16.5,7.9C16.9,7.5,16.8,7,17,6.5c-0.1-0.1,0-0.2,0.1-0.3c0.5,0.3,0.4,0.7,0.4,1.2c0,0.2-0.1,0.5-0.2,0.7
			c-0.1,0.8-0.4,1.5-0.5,2.3c0,0.4,0,0.7,0,1.1c-0.1,1.3-0.7,2.5-0.3,3.8c-0.4,0.5-1.1,0.2-1.5,0.8C15.5,13.4,16,10.7,16.5,7.9z"/>
		<path class="st21" d="M17.1,6.3C17,6.3,17,6.4,17,6.5c-0.5-0.9-1.4-1.5-1.6-2.6c0.6-0.7,1.4-1,2.2-1.5c0.5,0,0.3,0.5,0.4,0.8
			C17.7,4.2,17.7,5.3,17.1,6.3z"/>
		<path class="st22" d="M16.5,15.4c-0.4,0.1-0.7,0.1-0.5-0.5c0.2-1.1,0.4-2.2,0.6-3.3c0.6,0.5,1.1,1.2,1.9,1.4
			c0.4,0.1,0.4,0.5,0.2,0.9C18,14.4,17.3,14.9,16.5,15.4z"/>
		<path class="st23" d="M18.7,13.9c-0.1-0.3-0.1-0.8-0.6-0.9c-0.9-0.1-1.3-0.7-1.5-1.5c0-0.4,0-0.8,0.1-1.2c0.8-0.1,1.3,0.4,1.8,0.9
			c0.4,0.4,0.8,0.8,1.3,1c0,0.3,0,0.7,0,1C19.4,13.6,19.1,13.8,18.7,13.9z"/>
		<path class="st24" d="M32.2,7.4c-0.8,0.5-1.7,0.6-2.6,0.3c-0.5-0.2-1.2-0.2-1.1-0.8c0-0.5,0.4-1.1,1.1-1.1
			C30.4,6.4,31.3,6.9,32.2,7.4z"/>
		<path class="st25" d="M39.9,22.8c-0.1,0.1-0.2,0.4-0.4,0.3c-0.6-1.3-0.3-2.7-0.4-4.1c0-0.8,0-1.5,0-2.3c0-0.4,0-1,0.6-1.1h0.1
			C39.8,18,39.9,20.4,39.9,22.8z"/>
		<path class="st26" d="M21.6,3.1c0-0.7-0.1-1.3,0.3-2c0.7,0.3,1.3,0.7,1.9,1.2C23.3,3.3,22.6,3.7,21.6,3.1z"/>
		<path class="st27" d="M7.6,16.8c0.1,0.2,0.2,0.3,0.2,0.5c-0.5,1.4-0.7,2.9-2.2,3.6c-0.2-0.1-0.3-0.2-0.5-0.2
			c0.2-0.3,0.8-0.4,0.8-0.9c0.2-0.8,0.6-1.5,0.9-2.3C7,17.2,7.2,16.8,7.6,16.8z"/>
		<path class="st28" d="M2.5,18.6C2.5,19,2,19,1.8,19.3c-0.3,1.2,0.1,2.4-0.2,3.6c-0.3-0.1-0.3-0.3-0.3-0.6c0-2.9,0-5.7,0-8.6
			c0-0.2,0.1-0.4,0.2-0.7c0,0.1,0.1,0.2,0.1,0.3c0.2,1.5-0.1,3,0.3,4.4C2,17.9,2,18.1,2.2,18.2C2.3,18.3,2.5,18.4,2.5,18.6z"/>
		<path class="st29" d="M20.4,44.8c-0.1-0.2-0.1-0.3-0.2-0.5c0.7-0.6,0.7-1.4,0.4-2.2c-0.2-0.5-0.3-1-0.2-1.5
			c0.1-0.5,0.3-0.9,0.9-0.6c0,0.2,0,0.5,0,0.7c0.2,1.7,0.2,3.4,0,5.1c0,0.1,0,0.2,0,0.2c-0.3-0.2-0.2-0.5-0.3-0.8
			C21,44.7,20.8,44.6,20.4,44.8z"/>
		<path class="st30" d="M19.7,1.2c0,1.1,0,2.3,0,3.4c-0.5-0.8-0.9-1.6-1.4-2.4C18.6,1.7,19.1,1.4,19.7,1.2z"/>
		<path class="st31" d="M30.1,28.6c-0.5,0.3-1,0.7-1.5,0.9c-0.5,0.2-1,0.4-1.5,0c0.5-0.4,1-0.7,1.5-1.1c0.5-0.6,0.9-0.5,1.4,0l0,0
			C30.1,28.5,30.1,28.5,30.1,28.6L30.1,28.6z"/>
		<path class="st32" d="M17.1,6.3c0.2-1,0.5-2.1,0.7-3.1c0.1-0.1,0.1-0.3,0.2-0.3s0.1,0,0.2,0C18,3.9,17.8,5,17.6,6
			c-0.1,0.5,0.5,1.2-0.3,1.5C17.2,7.1,17.4,6.6,17.1,6.3z"/>
		<path class="st33" d="M20.2,39c0,0.3,0,0.6-0.2,0.7c-0.1,0.1-0.2,0.1-0.2,0c-0.5-0.7-1.4-0.8-2-1.4c0.2,0,0.4,0,0.5-0.2
			c0.6,0,1,0.5,1.5,0.7C19.9,38.8,20,38.9,20.2,39z"/>
		<path class="st34" d="M9.3,23.8c0.2-0.2,0.3-0.3,0.5-0.5c0.5-0.2,0.9-0.5,1.4-0.7c0.2,0.2,0.3,0.4,0.5,0.5
			c-0.1,0.1-0.2,0.3-0.4,0.2c-0.5,0.2-1,0.5-1.4,0.7C9.5,24.2,9.3,24.3,9.3,23.8z"/>
		<path class="st35" d="M19.7,39.7c0.1,0,0.2,0,0.2,0c0,2,0,4,0,6.1c-0.2-0.1-0.3,0.4-0.5,0c0.5-1.3,0.2-2.7,0.2-4
			C19.7,41.1,19.7,40.4,19.7,39.7z"/>
		<path class="st36" d="M20.2,39c-0.2,0-0.4,0-0.5-0.2v-0.1c0.3-1.4,0-2.8,0.1-4.1c0-0.5-0.1-1,0.1-1.5c0.1,0,0.2,0,0.2,0
			c0,0.4,0,0.8,0.1,1.2c0.3,0.8,0.5,1.6,0,2.4C20.2,37.4,20.2,38.2,20.2,39z"/>
		<path class="st37" d="M19.9,33c0,1.5,0,3.1,0,4.6c0,0.3,0.2,0.8-0.2,1c0-1.6,0-3.1,0-4.7c0-0.3,0-0.7,0-1
			C19.8,32.9,19.9,33,19.9,33z"/>
		<path class="st38" d="M30.1,28.6c0-0.1-0.1-0.1-0.1-0.2c0.4-0.3,0.3-0.6-0.1-0.8c-0.3-0.2-0.6-0.3-0.6-0.7
			c0.6,0.4,1.3,0.8,1.9,1.2c-0.2,0.3-0.3,0.5-0.5,0.8C30.5,28.8,30.3,28.7,30.1,28.6z"/>
		<path class="st39" d="M13.7,35.4c0.8,0.5,1.6,0.9,2.4,1.4c-0.1,0.1-0.2,0.2-0.3,0.3c-0.8-0.5-1.6-1-2.4-1.5
			C13.4,35.4,13.4,35.3,13.7,35.4z"/>
		<path class="st40" d="M11.3,23.4c0.1-0.1,0.3-0.2,0.4-0.2c0.1,1.2,0.1,2.4,0,3.5c-0.4-0.7-0.1-1.4-0.2-2.1
			C11.5,24.2,11.5,23.8,11.3,23.4z"/>
		<path class="st41" d="M11.7,21.9c-0.4-1.2-0.2-2.4-0.1-3.6h0.1c0,0,0.1,0,0.1,0.1C11.8,19.6,11.7,20.7,11.7,21.9z"/>
		<path class="st38" d="M30,28.4c-0.5-0.2-0.9-0.3-1.4,0C29.1,27.5,29.5,27.5,30,28.4z"/>
		<path class="st42" d="M29.5,41c-0.2-0.1-0.7-0.1-0.4-0.4c0.3-0.4,0.7-0.3,0.9,0.2C29.8,40.7,29.6,40.7,29.5,41z"/>
		<path class="st43" d="M18,2.9c-0.1,0.1-0.2,0.2-0.2,0.3c-0.1-0.3,0.2-0.7-0.3-0.8c0.1-0.2,0.2-0.3,0.4-0.2C18.2,2.3,18,2.6,18,2.9
			z"/>
		<path class="st44" d="M39.7,15.6c-0.6,1.1-0.1,2.3-0.3,3.4c-0.7,0.7-1,1.4-0.3,2.4c0.4,0.6,0.3,0.7-0.4,1.3
			c-1.4-0.7-2.9-1.4-4.2-2.4c0.7-0.7,0.4-1.2-0.2-1.7c1.6-1.2,3.4-2,5.1-3C39.5,15.5,39.6,15.6,39.7,15.6z"/>
		<path class="st45" d="M34.3,18.5c0.5,0.1,1,0.3,1.1,0.8s-0.5,0.7-0.9,0.9c-0.6-0.2-1.1-0.5-1.6-1C33.3,18.9,33.8,18.7,34.3,18.5z"
			/>
		<path class="st46" d="M31.9,19.4c-0.6,0.1-0.9-0.1-1.3-0.5C31.2,18.7,31.5,18.9,31.9,19.4z"/>
		<path class="st47" d="M22.6,38.3c2.1-1.6,4.4-2.8,6.6-4.2c0.3-0.2,0.6-0.3,0.7,0c0.2,0.4-0.2,0.6-0.5,0.7
			c-2.2,1.4-4.4,2.8-6.6,4.2C22.2,38.9,22.4,38.6,22.6,38.3z"/>
		<path class="st48" d="M22.6,38.3c0,0.3,0,0.5,0.2,0.7c-0.5,0.3-0.9,0.7-1.4,1c-1,0.2-0.9,1-0.6,1.5c0.3,0.7,0.3,1.3,0.3,1.9
			c0.1,0.7-0.3,0.9-0.9,0.8c0-0.8,0-1.7,0-2.5c-0.1-1.3,0.1-2.4,1.5-3c0.1-0.4,0.3-0.6,0.7-0.6C22.4,38.3,22.5,38.3,22.6,38.3z"/>
		<path class="st49" d="M22.3,38.3c-0.2,0.2-0.5,0.4-0.7,0.6c-0.3-0.1-0.3-0.4-0.3-0.7c0-1.6,0-3.3,0.1-4.9c0.5,1,0.2,2.1,0.2,3.2
			C21.6,37.2,21.7,37.8,22.3,38.3z"/>
		<path class="st50" d="M21.4,45.8c0-1.7,0-3.4,0-5.1C21.8,42.4,21.8,44.1,21.4,45.8z"/>
		<path class="st51" d="M13.7,35.4c-0.1,0.1-0.1,0.1-0.2,0.2c-0.2-0.2-0.4-0.3-0.8-0.5C13.2,34.9,13.4,35.2,13.7,35.4z"/>
		<path class="st52" d="M33.8,29.4c-0.8-0.3-1.6-0.8-2.3-1.3c0.7-0.5,1.5-0.4,2.3-0.4c0.4,0,0.8-0.1,0.9,0.3
			c0.2,0.4-0.2,0.6-0.4,0.9C34.2,29.1,34,29.2,33.8,29.4z"/>
		<ellipse class="st53" cx="39.5" cy="28.8" rx="0.1" ry="3.5"/>
		<path class="st53" d="M39.5,24.3c0.1,0.1,0.1,0.1,0.2,0.2c0,0.2-0.1,0.4-0.1,0.7C39.4,24.8,39.2,24.6,39.5,24.3z"/>
		<path class="st54" d="M9.3,23.8c0.1,0.3,0.3,0.2,0.5,0.3c-0.6,0.4-1.1,0.7-2.1,0.9C8.3,24.4,8.8,24.1,9.3,23.8z"/>
		<path class="st55" d="M2.5,18.6c-0.2,0-0.3,0-0.5,0c-0.6-0.5-0.3-1.1-0.2-1.7c0.4,0.2,0.7,0.6,1.2,0.2C3.4,16.8,3.9,17,4.4,17
			c0.8,0,1.6,0.1,2.2-0.4c0.3-0.2,0.6-0.3,0.9,0.1c0,0.1,0,0.1,0,0.2c-0.7,0.9-0.6,2.2-1.6,3c-0.7-0.6-1.5-1.1-2.2-1.7
			c-0.5-0.2-0.6,0.3-0.9,0.4C2.8,18.5,2.7,18.5,2.5,18.6z"/>
		<path class="st56" d="M2.9,18.5c0.1-0.6,0.4-0.8,0.9-0.4C3.5,18.2,3.2,18.4,2.9,18.5z"/>
		<path class="st57" d="M38.7,22.6c0.4-0.5,0.5-0.8,0.1-1.4c-0.9-1.2-0.7-1.4,0.7-2.2c0,1.4,0,2.7,0,4.1
			C39.2,22.9,39,22.8,38.7,22.6z"/>
		<path class="st58" d="M20.2,36.6c0-0.8,0-1.6,0-2.4C21.2,35.3,21.2,35.8,20.2,36.6z"/>
		<path class="st59" d="M21.1,38.1c-0.1,0.3,0.1,0.7-0.4,0.7c-0.3,0-0.3-0.4-0.3-0.7s0-0.7,0.4-0.7C21.2,37.5,21,37.9,21.1,38.1z"/>
		<path class="st14" d="M17.3,7.5c0.3-0.5,0.3-1,0.3-1.5c0.6,0.6,1.1,1.2,2.1,1.2c0,1,0,2.1,0,3.1c-1.3-0.3-2-1.3-2.6-2.4
			C17.2,7.8,17.2,7.7,17.3,7.5z"/>
		<path class="st60" d="M17.1,8c0.9,0.8,1.7,1.6,2.6,2.4c0,0.6,0,1.3,0,1.9c-0.1,0-0.3,0.1-0.3,0.1c-1-0.6-1.7-1.5-2.7-2
			C16.7,9.5,17.2,8.8,17.1,8z"/>
		<path class="st61" d="M20.8,13"/>
	</g>
	<text transform="matrix(1 0 0 1 51.7922 31.9602)" class="st3 st62 st63">DEKA</text>
</g>
</svg>
