<?xml version="1.0" encoding="utf-8"?>
<!-- Generator: Adobe Illustrator 25.4.1, SVG Export Plug-In . SVG Version: 6.00 Build 0)  -->
<svg version="1.1" id="Layer_1" xmlns="http://www.w3.org/2000/svg" xmlns:xlink="http://www.w3.org/1999/xlink" x="0px" y="0px"
	 viewBox="0 0 28 28" style="enable-background:new 0 0 28 28;" xml:space="preserve">
<style type="text/css">
	.st0{fill:#887E71;}
	.st1{fill:#FD961F;}
	.st2{fill:#747068;}
	.st3{fill:#212A31;}
	.st4{fill:#FD951E;}
	.st5{fill:#232B33;}
	.st6{fill:#232C33;}
	.st7{fill:#726F68;}
	.st8{fill:#273038;}
	.st9{fill:#8C8376;}
	.st10{fill:#262E35;}
	.st11{fill:#FCF7EF;}
	.st12{fill:#6F6C64;}
	.st13{fill:#FCF7F1;}
	.st14{fill:#283139;}
	.st15{fill:#EBECEC;}
	.st16{fill:#E9D9C4;}
	.st17{fill:#232B32;}
	.st18{fill:#182026;}
	.st19{fill:#7A7165;}
	.st20{fill:#E4E5E5;}
	.st21{fill:#262D34;}
	.st22{fill:#232A31;}
	.st23{fill:#252E36;}
	.st24{fill:#8E8578;}
	.st25{fill:#FB8C14;}
	.st26{fill:#877E71;}
	.st27{fill:#DBDCDE;}
	.st28{fill:#96999C;}
	.st29{fill:#EBE0D1;}
	.st30{fill:#2E3841;}
	.st31{fill:#FC9D2E;}
	.st32{fill:#E1E2E3;}
	.st33{fill:#F1EFED;}
	.st34{fill:#DBDCDC;}
	.st35{fill:#686359;}
	.st36{fill:#A7A29B;}
	.st37{fill:#646057;}
	.st38{fill:#FEF1E2;}
	.st39{fill:#D2D0CE;}
	.st40{fill:#1B2228;}
	.st41{fill:#141B20;}
	.st42{fill:#FBC88D;}
	.st43{fill:#D9DADB;}
	.st44{fill:#FC941E;}
	.st45{fill:#FA8C14;}
	.st46{fill:#A19A8C;}
	.st47{fill:#FEF9F3;}
	.st48{fill:#F3EADF;}
	.st49{fill:#FB880D;}
	.st50{fill:#FB8711;}
	.st51{fill:#ABA7A2;}
	.st52{fill:#FD8F18;}
	.st53{fill:#FC8C15;}
	.st54{fill:#B6B8BA;}
	.st55{fill:#28323A;}
	.st56{fill:#71767A;}
	.st57{fill:#FD992A;}
	.st58{fill:#F6F3F0;}
	.st59{fill:#FBF9F6;}
	.st60{fill:#20292F;}
	.st61{fill:#FDFDFD;}
</style>
<g>
	<path class="st0" d="M18.6,12.8c0,0,0-0.1,0-0.1c0.3-1.3-0.4-2-1.5-2.5c-0.9-0.4-1.7-1-2.6-1.5c-0.2-0.5-0.1-1.1-0.1-1.7
		c0-0.6,0-1.3,0-1.9c0-0.3,0.2-0.5,0.5-0.3c0.4,0.2,0.5,0,0.8-0.2c0.4-0.3,0.6-0.8,1.2-0.9c0.6,0.3,1.2,0.6,1.7,1.1
		c0,0.1-0.1,0.1-0.1,0.2c-0.3,0.4-0.3,0.5,0.2,0.7c0.5,0.2,0.9,0,1.4,0c1.1,0.6,2.2,1.2,3.2,1.9C24.2,8,24.1,9,24.1,9.9
		c0,0-0.1,0.1-0.1,0.1c-0.9,0.5-1.8,1-2.7,1.5c-0.3,0.1-0.5,0.2-0.8,0.4c-0.2,0.1-0.4,0.3-0.6,0.4C19.4,12.4,19.2,13,18.6,12.8z"/>
	<path class="st1" d="M18.7,23.2c0,0.2-0.1,0.2-0.3,0.3c-1.3,0.8-2.5,1.5-3.8,2.3c-0.1,0-0.2,0-0.2,0c0-0.1,0-0.1,0-0.2
		c0-0.8,0-1.7-0.1-2.5c0-0.1,0-0.3,0-0.4c0.1-0.4,0.5-0.5,0.8-0.7c1.1-0.8,2.3-1.4,3.4-2.3c-1,0.5-2,1.2-2.9,1.8
		c-0.2,0.1-0.4,0.3-0.6,0.3c-0.1,0-0.1,0-0.2-0.1c-0.3-0.2-0.4-0.5-0.4-0.8c0-0.6,0-1.2,0-1.7c0-0.1,0-0.1,0.1-0.2
		c1-0.6,2-1.2,3-1.8c0.6,0.1,1-0.5,1.5-0.6c0.2,0,0.3,0,0.4,0.1c1.4,0.9,2.9,1.5,4.2,2.5c0.4,0.2,0.4,0.5,0.2,0.9
		c-0.1,0.2-0.3,0.4-0.6,0.6c-1.3,0.7-2.5,1.5-3.8,2.2c-0.1,0.1-0.3,0.2-0.5,0.1c-0.1-0.1-0.2-0.1-0.3-0.1
		C18.6,23,18.6,23.1,18.7,23.2z"/>
	<path class="st2" d="M12,21.1c-0.2,0-0.3,0-0.4-0.1c-0.5-0.1-0.9-0.4-1.3-0.7c0,0-0.1,0-0.1-0.1c0,0,0,0.1,0.1,0.1
		c0.4,0.3,0.9,0.4,1.1,0.8c-0.5,0.6-1.3,0.8-2,1.3c-0.6,0.4-1,0.4-1.6,0c-1-0.7-2-1.2-3-1.8c-0.2-0.1-0.4-0.3-0.6-0.5
		c-0.4-0.5-0.3-0.8,0.3-1.1c1.5-0.8,2.9-1.6,4.4-2.4c0.4-0.2,0.7-0.2,1,0c1.2,0.8,2.4,1.5,3.6,2.2c0.1,0.1,0.1,0.3,0.1,0.5
		c-0.1,0.2-0.3,0.1-0.5,0.2c-0.4,0.2-0.9,0.4-0.8,1.1C12.4,20.9,12.2,21.1,12,21.1z"/>
	<path class="st3" d="M9.3,5.2c0.1-0.3,0.2-0.6,0.6-0.6c0.4-0.1,0.6,0.1,0.8,0.4c0.2,0.3,0.6,0.5,0.9,0.7c0.1,0.1,0.4,0,0.4,0.3
		c-0.3,1.4-0.4,2.8-0.9,4.2c-0.5,0.4-1.3,0.6-1.7,1.2c-0.2,0.6-0.1,1.2,0,1.8c0,0.2-0.2,0.2-0.2,0.4C8.9,13.8,8.6,14,8.3,14
		c-0.6-0.1-1.2-0.4-1.8-0.6c-0.2-0.1-0.5-0.2-0.4-0.6c0-0.1,0.1-0.1,0.1-0.2c0.5-0.6,0.8-1.2,1-2c0.7-1.4,1.3-2.8,1.7-4.2
		C9,6,9,5.6,9.3,5.2z"/>
	<path class="st4" d="M18.6,12.8c0.5,0,0.8-0.5,1.2-0.6c0.8,0.1,1.3,0.6,2,1c0.7,0.4,1.5,0.7,2.1,1.2c0,0.1,0,0.2,0,0.2
		c0,0,0,0.1,0,0.1c0.1,0,0-0.1,0.1-0.1c0.1,0,0.1,0,0.1,0.1c0,1.4,0,2.8,0,4.2c-0.2,0.2-0.3,0-0.5,0c-0.9-0.4-1.7-0.8-2.5-1.3
		c-0.1-0.1-0.2-0.2-0.3-0.3c0-0.3,0.4-0.5,0.2-0.7c-0.2-0.2-0.6-0.1-0.9-0.1c-0.2,0-0.3,0.1-0.5,0.1c-0.1,0-0.1,0-0.2,0
		c-0.4-0.2-0.7-0.4-1-0.7C18.6,14.8,18.6,13.8,18.6,12.8z"/>
	<path class="st5" d="M6,12.8c0.1,0.4,0.4,0.5,0.7,0.5c0.6,0.1,1,0.5,1.6,0.6c0,0.2-0.1,0.3-0.2,0.3c-0.1,0.1-0.2,0.2-0.5,0.2
		c0.4-0.1,0.5-0.2,0.7-0.3c0.3-0.1,0.5-0.5,0.9-0.2c0.2,0.6,0,1.2,0.1,1.7C9.3,16,9,16,8.8,16.1c-1.5,0.8-3,1.7-4.4,2.5
		c-0.2,0.1-0.4,0.3-0.4-0.1c0-1.4-0.1-2.8,0.1-4.2c0.1,0.6,0,1.2,0.1,1.7C4,15.5,4.2,14.9,4,14.3C4.7,13.8,5.4,13.3,6,12.8z"/>
	<path class="st6" d="M4,8.5c0.3-1,1.3-1.2,2-1.7c0.2-0.1,0.5,0,0.7,0c0.6,0.1,0.8,0.3,0.7,0.9c0,0.4-0.1,0.6,0.4,0.5
		C8,8.2,8,8.4,8.1,8.5c-0.2,0.7-0.4,1.3-0.8,1.9c-0.8,0.3-1.6,0.3-2.5,0.4c-0.4,0.1-0.6,0-0.7-0.4C4,9.9,4.1,9.3,4,8.7
		C4,8.6,4,8.5,4,8.5z"/>
	<path class="st7" d="M13.4,25.7c-1.3-0.7-2.5-1.5-3.8-2.2c-0.4-0.3-0.4-0.4,0-0.6c0.6-0.3,1.3-0.7,1.9-1c0.3-0.2,0.6-0.3,1-0.1
		c0.5,0.1,1,0.3,1.2,0.9c0,0.7,0,1.5,0,2.2C13.7,25.2,13.7,25.5,13.4,25.7z"/>
	<path class="st8" d="M7.9,8.5c-0.1-0.3-0.3-0.1-0.4,0C7.2,8.5,7.1,8.4,7.2,8.1c0.1-0.2,0.1-0.3,0.1-0.5c0-0.4-0.1-0.6-0.5-0.6
		C6.5,7,6.2,7,6,6.8c0.9-0.6,1.9-1.2,2.8-1.7c0.3,0,0.3,0.3,0.3,0.5c-0.2,1-0.5,1.9-0.9,2.9C8.1,8.5,8,8.5,7.9,8.5z"/>
	<path class="st9" d="M16.9,3.7C16.5,4.1,16,4.5,15.6,5c-0.2,0.2-0.4,0.2-0.6,0c-0.1-0.1-0.3-0.3-0.5-0.1c-0.1-0.4,0-0.9-0.1-1.4
		c0.3-0.4,0.9-0.2,1.2-0.5C16.1,3.1,16.5,3.4,16.9,3.7z"/>
	<path class="st10" d="M5.9,12.5c-0.6,0.3-1.1,0.7-1.7,1C3.9,13.4,4,13.1,4,12.8c0-0.3,0-0.6,0-0.9c0-0.3,0.2-0.4,0.4-0.5
		c0.1,0,0.1-0.1,0.2-0.1c0.2-0.1,0.4-0.2,0.6-0.2c0.5,0.2,0.9,0.5,1.2,1C6.4,12.4,6.2,12.5,5.9,12.5z"/>
	<path class="st11" d="M19.6,16.4c0,0,0.1,0,0.1,0c0.5,0.1,0.9,0.3,1.2,0.7c0.9,0.7,2,1.1,2.9,1.7c0.1,0,0.2,0,0.2,0
		C24.1,19,23.9,19,23.7,19c-0.4-0.1-0.1,0.2-0.1,0.3c-1.5-0.7-2.9-1.5-4.3-2.4C19.3,16.6,19.4,16.5,19.6,16.4z"/>
	<path class="st12" d="M12,21.1c0.1-0.1,0.3-0.2,0.2-0.5c-0.1-0.7,0.6-1.3,1.3-1.2c0.3,0.5,0.1,1,0.2,1.5c0,0.3,0,0.5,0,0.8
		c0,0.1,0,0.1-0.1,0.2c-0.4,0.2-0.6-0.1-0.8-0.3C12.5,21.5,12.2,21.4,12,21.1z"/>
	<path class="st13" d="M23.9,14.4c-1.2-0.7-2.4-1.3-3.6-2c-0.2-0.1-0.3-0.2-0.5-0.3c0.2-0.2,0.4-0.3,0.6-0.3c0.4,0,0.6,0.3,0.9,0.4
		c0.7,0.4,1.4,0.8,2.1,1.2c0.1,0.1,0.2,0.2,0.3,0.2c0.1,0,0.2,0,0.3,0c-0.1,0.3-0.2,0.6,0,0.9c0,0-0.1,0-0.1-0.1
		C24,14.5,23.9,14.5,23.9,14.4z"/>
	<path class="st14" d="M11.9,5.8c-0.5-0.2-1-0.4-1.4-0.9c-0.1-0.2-0.4-0.3-0.6-0.4c0.4-0.3,0.9-0.6,1.3-0.8c0.3,0.5,0.8,0.8,1,1.4
		C12.1,5.4,12.3,5.7,11.9,5.8z"/>
	<path class="st15" d="M7.9,8.5c0.4-0.9,0.7-1.8,1-2.8c0-0.2,0.2-0.4-0.1-0.6c0.2-0.3,0.3,0.1,0.5,0.1c-0.3,1.9-1.1,3.6-1.9,5.3
		c0,0.1-0.1,0.2-0.1,0.3c-0.2,0-0.2-0.1-0.2-0.2c0-0.1,0-0.1,0.1-0.2C7.4,9.8,7.8,9.2,7.9,8.5z"/>
	<path class="st16" d="M14.4,19c0,0,0,0.1,0,0.1c0.1,0.5,0,0.9,0.1,1.4c0,0.5,0,1,0.1,1.4c0,0,0,0.1,0,0.1c-0.9,0.8-0.6,1.8-0.6,2.8
		c0,0.1,0,0.3-0.1,0.4c-0.2,0.1,0.1,0.5-0.2,0.5c-0.1-1,0-2-0.1-3c0-0.2,0-0.4,0-0.5c0.1-0.4,0-0.8,0-1.1c0.4-0.5,0.3-0.9,0-1.4
		c0-0.2-0.1-0.4,0.1-0.6C14,19,14.2,19.1,14.4,19z"/>
	<path class="st17" d="M12.7,3.2c0-0.1,0-0.3,0-0.4c0.1-0.1,0.3-0.1,0.3,0.1c0.2,0.4,0.5,0.8,0.6,1.2c0,0.4,0,0.8,0,1.2
		c-0.1,0.2-0.3,0.4-0.4,0.2c-0.3-0.3-0.9-0.2-0.9-0.8C12.4,4.2,12.4,3.6,12.7,3.2z"/>
	<path class="st18" d="M13.5,5.5c0-0.5,0-0.9,0-1.4c-0.1-0.6-0.4-1.2,0-1.8c0.2-0.1,0.2,0.1,0.2,0.2c0,1.9,0,3.9,0,5.8
		c0,0.2,0,0.3-0.2,0.3c-0.2-0.1-0.2-0.3-0.2-0.5c0-0.3,0-0.7,0-1C13.4,6.5,13.2,6,13.5,5.5z"/>
	<path class="st19" d="M14.5,3.3c0,0.5,0,1,0,1.5c0,1.3,0,2.5,0,3.8c-0.3-0.1-0.2-0.4-0.2-0.6c0-1.8,0-3.6,0-5.4
		c0-0.2-0.2-0.6,0.3-0.3C14.7,2.6,14.7,3,14.5,3.3z"/>
	<path class="st20" d="M11.9,5.8C12,5.6,12,5.3,12.1,5.1c0-0.1,0-0.1,0.1-0.1c0.3,0.1,0.2,0.4,0.2,0.6c0,0.1-0.1,0.3-0.1,0.4
		c0,0.4-0.2,0.8-0.3,1.2c0,0.2,0,0.4,0,0.6c-0.1,0.7-0.4,1.3-0.2,2c-0.2,0.3-0.6,0.1-0.8,0.4C11.3,8.7,11.6,7.3,11.9,5.8z"/>
	<path class="st21" d="M12.1,5c0,0,0,0.1,0,0.1c-0.3-0.5-0.8-0.8-0.9-1.4c0.3-0.4,0.8-0.5,1.1-0.8c0.3,0,0.1,0.3,0.2,0.4
		C12.5,3.9,12.5,4.5,12.1,5z"/>
	<path class="st22" d="M11.8,9.7c-0.2,0.1-0.4,0.1-0.3-0.3c0.1-0.6,0.2-1.2,0.3-1.7c0.3,0.3,0.6,0.6,1,0.8C13.1,8.6,13.1,8.8,13,9
		C12.6,9.2,12.2,9.5,11.8,9.7z"/>
	<path class="st23" d="M13,9c-0.1-0.2-0.1-0.4-0.3-0.5c-0.5,0-0.7-0.4-0.8-0.8c0-0.2,0-0.4,0-0.6c0.4-0.1,0.7,0.2,0.9,0.5
		C13,7.8,13.2,8,13.5,8.1c0,0.2,0,0.4,0,0.5C13.4,8.8,13.2,8.9,13,9z"/>
	<path class="st24" d="M20.1,5.6c-0.4,0.3-0.9,0.3-1.4,0.2c-0.3-0.1-0.6-0.1-0.6-0.4c0-0.3,0.2-0.6,0.6-0.6
		C19.1,5,19.6,5.3,20.1,5.6z"/>
	<path class="st25" d="M24.1,13.6c-0.1,0.1-0.1,0.2-0.2,0.1c-0.3-0.7-0.1-1.4-0.2-2.1c0-0.4,0-0.8,0-1.2c0-0.2,0-0.5,0.3-0.6
		c0,0,0,0,0,0C24.1,11.1,24.1,12.4,24.1,13.6z"/>
	<path class="st26" d="M14.5,3.3c0-0.3-0.1-0.7,0.1-1c0.4,0.2,0.7,0.4,1,0.6C15.4,3.4,15,3.6,14.5,3.3z"/>
	<path class="st27" d="M7.2,10.5c0,0.1,0.1,0.2,0.1,0.3c-0.3,0.7-0.4,1.5-1.1,1.9c-0.1,0-0.2-0.1-0.2-0.1C6,12.4,6.4,12.3,6.3,12
		c0.1-0.4,0.3-0.8,0.5-1.2C6.9,10.7,6.9,10.5,7.2,10.5z"/>
	<path class="st28" d="M4.5,11.4c0,0.2-0.3,0.2-0.4,0.3C4,12.4,4.2,13,4,13.7c-0.2,0-0.1-0.2-0.2-0.3c0-1.5,0-3,0-4.5
		C3.9,8.7,4,8.6,4,8.5c0,0,0,0.1,0,0.1c0.1,0.8-0.1,1.6,0.1,2.3c0,0.1,0,0.2,0.1,0.3C4.4,11.3,4.5,11.3,4.5,11.4z"/>
	<path class="st29" d="M13.9,25.2c0-0.1-0.1-0.2-0.1-0.3c0.4-0.3,0.4-0.7,0.2-1.1c-0.1-0.3-0.2-0.5-0.1-0.8c0.1-0.3,0.2-0.5,0.5-0.3
		c0,0.1,0,0.2,0,0.4c0.1,0.9,0.1,1.8,0,2.7c0,0,0,0.1,0,0.1c-0.2-0.1-0.1-0.3-0.1-0.4C14.2,25.1,14.1,25.1,13.9,25.2z"/>
	<path class="st30" d="M13.5,2.3c0,0.6,0,1.2,0,1.8c-0.2-0.4-0.5-0.8-0.7-1.3C12.9,2.5,13.2,2.4,13.5,2.3z"/>
	<path class="st31" d="M19,16.7c-0.3,0.2-0.5,0.4-0.8,0.5c-0.2,0.1-0.5,0.2-0.8,0c0.3-0.2,0.5-0.4,0.8-0.6c0.2-0.3,0.5-0.3,0.7,0
		l0,0C19,16.6,19,16.6,19,16.7C19,16.7,19,16.7,19,16.7z"/>
	<path class="st32" d="M12.1,5c0.1-0.5,0.3-1.1,0.4-1.6c0-0.1,0-0.1,0.1-0.1c0,0,0.1,0,0.1,0c-0.1,0.6-0.2,1.1-0.3,1.7
		c-0.1,0.3,0.3,0.6-0.2,0.8C12.2,5.4,12.3,5.1,12.1,5z"/>
	<path class="st33" d="M13.8,22.1c0,0.1,0,0.3-0.1,0.4c0,0.1-0.1,0.1-0.1,0c-0.3-0.4-0.7-0.4-1-0.7c0.1,0,0.2,0,0.3-0.1
		c0.3,0,0.5,0.2,0.8,0.4C13.6,22,13.7,22.1,13.8,22.1z"/>
	<path class="st34" d="M8.1,14.2c0.1-0.1,0.2-0.2,0.3-0.2c0.2-0.1,0.5-0.3,0.7-0.4c0.1,0.1,0.2,0.2,0.2,0.3C9.3,13.9,9.2,14,9.1,14
		c-0.2,0.1-0.5,0.2-0.7,0.4C8.2,14.4,8.1,14.4,8.1,14.2z"/>
	<path class="st35" d="M13.5,22.5c0,0,0.1,0,0.1,0c0,1.1,0,2.1,0,3.2c-0.1-0.1-0.2,0.2-0.3,0c0.3-0.7,0.1-1.4,0.1-2.1
		C13.5,23.2,13.5,22.9,13.5,22.5z"/>
	<path class="st36" d="M13.8,22.1c-0.1,0-0.2,0-0.3-0.1c0,0,0,0,0-0.1c0.1-0.7,0-1.4,0.1-2.2c0-0.3-0.1-0.5,0.1-0.8c0,0,0.1,0,0.1,0
		c0,0.2,0,0.4,0,0.6c0.2,0.4,0.3,0.8,0,1.2C13.8,21.3,13.8,21.7,13.8,22.1z"/>
	<path class="st37" d="M13.6,19c0,0.8,0,1.6,0,2.4c0,0.2,0.1,0.4-0.1,0.5c0-0.8,0-1.6,0-2.5c0-0.2,0-0.4,0-0.5
		C13.6,18.9,13.6,19,13.6,19z"/>
	<path class="st38" d="M19,16.7c0,0,0-0.1,0-0.1c0.2-0.2,0.1-0.3-0.1-0.4c-0.1-0.1-0.3-0.1-0.3-0.3c0.3,0.2,0.7,0.4,1,0.6
		c-0.1,0.1-0.2,0.3-0.3,0.4C19.2,16.8,19.1,16.7,19,16.7z"/>
	<path class="st39" d="M10.3,20.2c0.4,0.2,0.9,0.5,1.3,0.7c0,0.1-0.1,0.1-0.1,0.2c-0.4-0.3-0.8-0.5-1.2-0.8
		C10.2,20.2,10.2,20.2,10.3,20.2z"/>
	<path class="st40" d="M9.1,14c0.1,0,0.2-0.1,0.2-0.1c0.1,0.6,0.1,1.2,0,1.9c-0.2-0.3-0.1-0.7-0.1-1.1C9.2,14.4,9.2,14.2,9.1,14z"/>
	<path class="st41" d="M9.3,13.2c-0.2-0.6-0.1-1.3-0.1-1.9c0,0,0,0,0.1,0c0,0,0,0,0,0C9.3,11.9,9.3,12.6,9.3,13.2z"/>
	<path class="st38" d="M18.9,16.6c-0.3-0.1-0.5-0.1-0.7,0C18.4,16.1,18.7,16.1,18.9,16.6z"/>
	<path class="st42" d="M18.7,23.2c-0.1,0-0.4,0-0.2-0.2c0.1-0.2,0.4-0.2,0.5,0.1C18.8,23,18.7,23,18.7,23.2z"/>
	<path class="st43" d="M12.6,3.2c0,0-0.1,0.1-0.1,0.1c-0.1-0.1,0.1-0.4-0.2-0.4c0-0.1,0.1-0.2,0.2-0.1C12.7,2.9,12.6,3,12.6,3.2z"/>
	<path class="st44" d="M24,9.9c-0.3,0.6-0.1,1.2-0.1,1.8c-0.4,0.4-0.5,0.7-0.2,1.2c0.2,0.3,0.1,0.4-0.2,0.7
		c-0.8-0.4-1.5-0.8-2.2-1.2c0.4-0.4,0.2-0.6-0.1-0.9c0.8-0.6,1.8-1.1,2.7-1.6C23.9,9.8,24,9.8,24,9.9z"/>
	<path class="st45" d="M21.2,11.4c0.3,0,0.6,0.2,0.6,0.4c0,0.3-0.3,0.4-0.5,0.5c-0.3-0.1-0.6-0.3-0.8-0.5
		C20.6,11.6,20.9,11.5,21.2,11.4z"/>
	<path class="st46" d="M19.9,11.9c-0.3,0-0.5-0.1-0.7-0.3C19.6,11.5,19.7,11.6,19.9,11.9z"/>
	<path class="st47" d="M15,21.8c1.1-0.8,2.3-1.5,3.4-2.2c0.1-0.1,0.3-0.1,0.4,0c0.1,0.2-0.1,0.3-0.2,0.4c-1.1,0.7-2.3,1.5-3.5,2.2
		C14.8,22.1,14.9,21.9,15,21.8z"/>
	<path class="st48" d="M15,21.8c0,0.1,0,0.3,0.1,0.4c-0.2,0.2-0.5,0.3-0.7,0.5c-0.5,0.1-0.5,0.5-0.3,0.8c0.2,0.3,0.2,0.7,0.2,1
		c0,0.4-0.2,0.5-0.5,0.4c0-0.4,0-0.9,0-1.3c0-0.7,0.1-1.3,0.8-1.6c0-0.2,0.1-0.3,0.4-0.3C14.9,21.8,15,21.8,15,21.8z"/>
	<path class="st49" d="M14.9,21.8c-0.1,0.1-0.2,0.2-0.4,0.3c-0.2-0.1-0.2-0.2-0.2-0.4c0-0.9,0-1.7,0-2.6c0.3,0.5,0.1,1.1,0.1,1.7
		C14.5,21.2,14.6,21.5,14.9,21.8z"/>
	<path class="st50" d="M14.4,25.7c0-0.9,0-1.8,0-2.7C14.6,23.9,14.6,24.8,14.4,25.7z"/>
	<path class="st51" d="M10.3,20.2c0,0-0.1,0.1-0.1,0.1c-0.1-0.1-0.2-0.2-0.4-0.3C10.1,20,10.2,20.1,10.3,20.2z"/>
	<path class="st52" d="M20.9,17.1c-0.4-0.2-0.8-0.4-1.2-0.7c0.4-0.2,0.8-0.2,1.2-0.2c0.2,0,0.4,0,0.5,0.2c0.1,0.2-0.1,0.3-0.2,0.5
		C21.1,16.9,21,17,20.9,17.1z"/>
	<ellipse class="st53" cx="23.9" cy="16.8" rx="0" ry="1.8"/>
	<path class="st53" d="M23.9,14.4c0,0,0.1,0.1,0.1,0.1c0,0.1,0,0.2-0.1,0.4C23.9,14.7,23.7,14.6,23.9,14.4z"/>
	<path class="st54" d="M8.1,14.2c0,0.1,0.2,0.1,0.3,0.1c-0.3,0.2-0.6,0.4-1.1,0.5C7.5,14.5,7.8,14.3,8.1,14.2z"/>
	<path class="st55" d="M4.5,11.4c-0.1,0-0.2,0-0.2,0c-0.3-0.3-0.2-0.6-0.1-0.9c0.2,0.1,0.4,0.3,0.6,0.1c0.2-0.2,0.5,0,0.7,0
		c0.4,0,0.8,0,1.2-0.2c0.2-0.1,0.3-0.2,0.5,0.1c0,0,0,0.1,0,0.1C6.8,11,6.8,11.7,6.3,12c-0.4-0.3-0.8-0.6-1.2-0.9
		c-0.2-0.1-0.3,0.1-0.5,0.2C4.6,11.4,4.6,11.4,4.5,11.4z"/>
	<path class="st56" d="M4.7,11.4c0.1-0.3,0.2-0.4,0.5-0.2C5,11.2,4.8,11.3,4.7,11.4z"/>
	<path class="st57" d="M23.5,13.5c0.2-0.2,0.2-0.4,0-0.7c-0.4-0.6-0.4-0.8,0.4-1.2c0,0.7,0,1.4,0,2.1C23.7,13.7,23.6,13.6,23.5,13.5
		z"/>
	<path class="st58" d="M13.8,20.9c0-0.4,0-0.8,0-1.2C14.3,20.2,14.3,20.5,13.8,20.9z"/>
	<path class="st59" d="M14.2,21.7c0,0.1,0,0.4-0.2,0.4c-0.2,0-0.2-0.2-0.2-0.4c0-0.2,0-0.4,0.2-0.4C14.3,21.3,14.2,21.6,14.2,21.7z"
		/>
	<path class="st14" d="M12.2,5.6c0.1-0.2,0.1-0.5,0.2-0.8c0.3,0.3,0.6,0.7,1.1,0.6c0,0.5,0,1.1,0,1.6c-0.7-0.2-1-0.7-1.4-1.3
		C12.2,5.8,12.2,5.7,12.2,5.6z"/>
	<path class="st60" d="M12.1,5.8c0.5,0.4,0.9,0.8,1.4,1.3c0,0.3,0,0.7,0,1c-0.1,0-0.1,0.1-0.2,0.1c-0.5-0.3-0.9-0.8-1.4-1.1
		C11.9,6.7,12.2,6.3,12.1,5.8z"/>
	<path class="st61" d="M14.1,8.5"/>
</g>
</svg>
