<?xml version="1.0" encoding="utf-8"?>
<!-- Generator: Adobe Illustrator 25.4.1, SVG Export Plug-In . SVG Version: 6.00 Build 0)  -->
<svg version="1.1" id="Layer_1" xmlns="http://www.w3.org/2000/svg" xmlns:xlink="http://www.w3.org/1999/xlink" x="0px" y="0px"
	 viewBox="0 0 171.2 48" style="enable-background:new 0 0 171.2 48;" xml:space="preserve">
<style type="text/css">
	.st0{fill:#887E71;}
	.st1{fill:#FD961F;}
	.st2{fill:#747068;}
	.st3{fill:#212A31;}
	.st4{fill:#FD951E;}
	.st5{fill:#232B33;}
	.st6{fill:#232C33;}
	.st7{fill:#726F68;}
	.st8{fill:#273038;}
	.st9{fill:#8C8376;}
	.st10{fill:#262E35;}
	.st11{fill:#FCF7EF;}
	.st12{fill:#6F6C64;}
	.st13{fill:#FCF7F1;}
	.st14{fill:#283139;}
	.st15{fill:#EBECEC;}
	.st16{fill:#E9D9C4;}
	.st17{fill:#232B32;}
	.st18{fill:#182026;}
	.st19{fill:#7A7165;}
	.st20{fill:#E4E5E5;}
	.st21{fill:#262D34;}
	.st22{fill:#232A31;}
	.st23{fill:#252E36;}
	.st24{fill:#8E8578;}
	.st25{fill:#FB8C14;}
	.st26{fill:#877E71;}
	.st27{fill:#DBDCDE;}
	.st28{fill:#96999C;}
	.st29{fill:#EBE0D1;}
	.st30{fill:#2E3841;}
	.st31{fill:#FC9D2E;}
	.st32{fill:#E1E2E3;}
	.st33{fill:#F1EFED;}
	.st34{fill:#DBDCDC;}
	.st35{fill:#686359;}
	.st36{fill:#A7A29B;}
	.st37{fill:#646057;}
	.st38{fill:#FEF1E2;}
	.st39{fill:#D2D0CE;}
	.st40{fill:#1B2228;}
	.st41{fill:#141B20;}
	.st42{fill:#FBC88D;}
	.st43{fill:#D9DADB;}
	.st44{fill:#FC941E;}
	.st45{fill:#FA8C14;}
	.st46{fill:#A19A8C;}
	.st47{fill:#FEF9F3;}
	.st48{fill:#F3EADF;}
	.st49{fill:#FB880D;}
	.st50{fill:#FB8711;}
	.st51{fill:#ABA7A2;}
	.st52{fill:#FD8F18;}
	.st53{fill:#FC8C15;}
	.st54{fill:#B6B8BA;}
	.st55{fill:#28323A;}
	.st56{fill:#71767A;}
	.st57{fill:#FD992A;}
	.st58{fill:#F6F3F0;}
	.st59{fill:#FBF9F6;}
	.st60{fill:#20292F;}
	.st61{fill:#FDFDFD;}
	.st62{fill:#FFFFFF;}
	.st63{font-family:'Ethnocentric-Regular';}
	.st64{font-size:29.1272px;}
</style>
<g>
	<g>
		<path class="st0" d="M32.4,21.7c0-0.1-0.1-0.2,0-0.2c0.5-2.5-0.8-3.8-2.8-4.8c-1.7-0.8-3.3-1.9-4.9-2.9c-0.4-1-0.2-2.1-0.2-3.2
			c0-1.2,0-2.5,0-3.7c0.1-0.6,0.4-0.9,1-0.6c0.7,0.3,1,0,1.6-0.3c0.8-0.5,1.2-1.6,2.3-1.7c1.2,0.6,2.3,1.2,3.3,2
			c0,0.2-0.1,0.3-0.2,0.4c-0.6,0.7-0.5,0.9,0.3,1.2c0.9,0.3,1.7,0,2.6,0c2.1,1.2,4.2,2.3,6.2,3.6c1.7,1.1,1.5,2.8,1.4,4.5
			c-0.1,0.1-0.2,0.2-0.3,0.2c-1.7,0.9-3.4,1.9-5.1,2.9c-0.5,0.3-1,0.5-1.5,0.7c-0.4,0.2-0.8,0.5-1.2,0.8C34,21,33.5,22.1,32.4,21.7z
			"/>
		<path class="st1" d="M32.5,41.5c0,0.4-0.3,0.5-0.5,0.6c-2.4,1.4-4.8,2.9-7.2,4.3c-0.1,0.1-0.3,0.1-0.5,0.1c-0.1-0.1-0.1-0.3,0-0.4
			c-0.1-1.6,0-3.2-0.2-4.8c-0.1-0.3-0.1-0.5,0-0.8c0.3-0.7,1-0.9,1.5-1.3c2.2-1.5,4.5-2.7,6.5-4.3c-1.9,1-3.7,2.2-5.6,3.4
			c-0.4,0.2-0.7,0.5-1.2,0.5c-0.1,0-0.2-0.1-0.4-0.1c-0.7-0.3-0.8-0.9-0.8-1.6c0-1.1,0.1-2.2-0.1-3.3c0-0.1,0-0.3,0.1-0.4
			c1.9-1.1,3.8-2.3,5.8-3.4c1.2,0.1,1.9-0.9,2.9-1.1c0.3,0,0.6,0,0.8,0.2c2.6,1.7,5.5,2.9,8.1,4.8c0.8,0.4,0.7,1,0.3,1.7
			c-0.3,0.5-0.6,0.8-1.1,1.1c-2.4,1.4-4.8,2.8-7.2,4.3c-0.3,0.2-0.6,0.3-0.9,0.2c-0.2-0.1-0.3-0.2-0.5-0.1
			C32.4,41.2,32.4,41.3,32.5,41.5z"/>
		<path class="st2" d="M19.8,37.5c-0.3,0.1-0.5-0.1-0.7-0.2c-0.9-0.2-1.6-0.8-2.4-1.2c-0.1,0-0.1-0.1-0.1-0.1c0,0.1,0,0.1,0.1,0.2
			c0.7,0.6,1.7,0.7,2.2,1.5c-1,1.2-2.5,1.6-3.7,2.5c-1.1,0.8-1.9,0.8-3.1,0c-1.8-1.3-3.8-2.3-5.8-3.5c-0.4-0.2-0.8-0.5-1.1-0.9
			c-0.7-1-0.6-1.4,0.5-2c2.8-1.5,5.6-3,8.3-4.6c0.7-0.4,1.3-0.4,1.9,0.1c2.2,1.4,4.5,2.8,6.8,4.2c0.2,0.3,0.3,0.6,0.2,0.9
			c-0.2,0.4-0.6,0.3-0.9,0.4c-0.8,0.5-1.7,0.8-1.5,2C20.5,37.2,20.3,37.5,19.8,37.5z"/>
		<path class="st3" d="M14.7,7.2c0.1-0.6,0.5-1.1,1.2-1.2c0.7-0.2,1.2,0.3,1.5,0.7c0.4,0.7,1.2,0.9,1.8,1.4c0.2,0.1,0.7,0,0.7,0.5
			c-0.6,2.6-0.7,5.4-1.8,8c-1,0.8-2.4,1.2-3.3,2.3c-0.3,1.2-0.2,2.3-0.1,3.5c0.1,0.4-0.3,0.5-0.5,0.7c-0.4,0.5-0.9,0.9-1.5,0.9
			c-1.2-0.2-2.3-0.8-3.5-1.2c-0.4-0.1-1-0.4-0.8-1.1c0.1-0.1,0.2-0.2,0.2-0.3c0.9-1.1,1.6-2.4,1.9-3.8c1.3-2.6,2.4-5.3,3.3-8.1
			C14.2,8.8,14.2,7.9,14.7,7.2z"/>
		<path class="st4" d="M32.4,21.7c1-0.1,1.5-0.9,2.3-1.2c1.4,0.2,2.5,1.2,3.7,1.8c1.4,0.7,2.8,1.3,4,2.3c0.1,0.1,0,0.3,0.1,0.4
			c0,0.1,0,0.2,0,0.2c0.1,0,0.1-0.2,0.2-0.3c0.1,0,0.2,0,0.2,0.1c0,2.7,0,5.4,0,8c-0.3,0.5-0.7,0.1-0.9,0c-1.6-0.7-3.2-1.6-4.7-2.5
			c-0.2-0.1-0.4-0.3-0.5-0.6c-0.1-0.5,0.7-0.9,0.4-1.3c-0.4-0.5-1.1-0.2-1.7-0.1c-0.3,0-0.6,0.2-0.9,0.2c-0.1,0-0.2,0-0.3,0
			c-0.7-0.4-1.3-0.8-1.9-1.3C32.3,25.5,32.4,23.6,32.4,21.7z"/>
		<path class="st5" d="M8.5,21.8c0.1,0.7,0.8,1,1.3,1c1.1,0.1,2,0.9,3.1,1.1c0.1,0.3-0.2,0.5-0.4,0.7c-0.2,0.2-0.4,0.3-1,0.5
			c0.7-0.2,1-0.4,1.4-0.6c0.5-0.2,0.9-0.9,1.6-0.4c0.4,1.1,0,2.2,0.3,3.3c-0.1,0.5-0.6,0.6-0.9,0.8c-2.8,1.6-5.6,3.2-8.5,4.7
			c-0.3,0.2-0.8,0.6-0.8-0.2c0.1-2.7-0.2-5.3,0.1-8c0.3,1.1,0.1,2.2,0.1,3.3c-0.1-1.1,0.2-2.2-0.1-3.3C5.9,23.6,7.2,22.7,8.5,21.8z"
			/>
		<path class="st6" d="M4.6,13.5c0.5-1.9,2.4-2.3,3.8-3.2c0.4-0.1,0.9-0.1,1.3,0c1.2,0.1,1.6,0.5,1.4,1.7c-0.1,0.7-0.2,1.2,0.8,1
			c0.3-0.1,0.4,0.3,0.4,0.5c-0.3,1.3-0.8,2.6-1.6,3.6c-1.5,0.5-3.1,0.5-4.7,0.7c-0.7,0.1-1.1-0.1-1.3-0.7c-0.1-1.1,0-2.2-0.1-3.4
			C4.5,13.7,4.5,13.6,4.6,13.5z"/>
		<path class="st7" d="M22.4,46.3c-2.4-1.4-4.8-2.9-7.2-4.3c-0.8-0.5-0.7-0.8,0-1.1c1.2-0.6,2.4-1.3,3.6-2c0.6-0.4,1.2-0.5,1.9-0.1
			c1,0.3,2,0.5,2.3,1.7c0.1,1.4,0.1,2.8,0,4.2C23,45.3,23.1,45.9,22.4,46.3z"/>
		<path class="st8" d="M12.1,13.5c-0.2-0.6-0.6-0.1-0.8-0.1c-0.7,0.1-0.9-0.1-0.7-0.8c0.1-0.3,0.2-0.6,0.2-0.9
			c0.1-0.7-0.2-1.2-1-1.1c-0.5,0-1,0-1.5-0.3C10.2,9.2,12,8.1,13.8,7c0.6,0,0.6,0.5,0.5,0.9c-0.3,1.9-1,3.7-1.8,5.4
			C12.4,13.5,12.3,13.5,12.1,13.5z"/>
		<path class="st9" d="M29.2,4.3c-0.9,0.8-1.8,1.6-2.6,2.4c-0.3,0.3-0.7,0.3-1.1,0c-0.3-0.2-0.5-0.5-0.9-0.3c-0.3-0.9,0-1.7-0.2-2.6
			c0.6-0.7,1.7-0.4,2.3-1C27.6,3.3,28.5,3.7,29.2,4.3z"/>
		<path class="st10" d="M8.2,21.2c-1,0.6-2.1,1.3-3.1,1.9c-0.6-0.3-0.4-0.8-0.5-1.3c0-0.6,0-1.2,0-1.8c0-0.5,0.4-0.8,0.8-1
			c0.1-0.1,0.2-0.1,0.3-0.2c0.4-0.1,0.7-0.4,1.1-0.4c0.9,0.5,1.7,1,2.2,1.9C9.2,20.9,8.7,21.1,8.2,21.2z"/>
		<path class="st11" d="M34.3,28.6c0.1,0,0.2,0,0.2,0c0.9,0.1,1.7,0.6,2.3,1.3c1.8,1.3,3.8,2.1,5.6,3.3c0.1,0.1,0.3,0,0.4,0
			c-0.1,0.4-0.4,0.4-0.7,0.3C41.3,33.3,42,33.8,42,34c-2.8-1.3-5.6-2.9-8.2-4.6C33.6,28.9,33.9,28.8,34.3,28.6z"/>
		<path class="st12" d="M19.8,37.5c0.2-0.2,0.5-0.4,0.4-0.9c-0.2-1.3,1.1-2.5,2.5-2.2c0.6,0.9,0.2,1.9,0.3,2.8c0,0.5,0,1,0,1.5
			c0,0.1-0.1,0.3-0.1,0.4c-0.7,0.3-1.1-0.2-1.6-0.6C20.8,38.2,20.1,38.1,19.8,37.5z"/>
		<path class="st13" d="M42.5,24.8c-2.3-1.3-4.6-2.5-6.9-3.8c-0.3-0.2-0.6-0.4-0.9-0.6c0.3-0.4,0.7-0.6,1.2-0.7
			c0.7,0,1.2,0.6,1.8,0.8c1.3,0.8,2.7,1.5,4,2.3c0.2,0.1,0.4,0.3,0.6,0.4c0.2,0,0.4,0,0.5,0.1c-0.2,0.6-0.4,1.2,0,1.8
			c-0.1,0-0.1-0.1-0.2-0.1C42.6,25,42.5,24.9,42.5,24.8z"/>
		<path class="st14" d="M19.5,8.4c-1-0.4-2-0.7-2.6-1.7c-0.2-0.3-0.7-0.5-1.1-0.7c0.8-0.5,1.7-1.1,2.5-1.6C19,5.3,19.9,6,20.2,7.1
			C20.1,7.6,20.3,8.3,19.5,8.4z"/>
		<path class="st15" d="M12.1,13.5c0.8-1.7,1.4-3.5,1.9-5.4C14,7.8,14.4,7.3,13.8,7c0.5-0.5,0.6,0.2,0.9,0.2
			c-0.5,3.6-2.1,6.8-3.6,10.1c-0.1,0.2-0.2,0.3-0.2,0.5c-0.3,0.1-0.4-0.2-0.4-0.4c0-0.1,0.1-0.2,0.1-0.3
			C11.1,15.9,11.7,14.8,12.1,13.5z"/>
		<path class="st16" d="M24.3,33.5c0,0.1,0,0.2,0,0.3c0.2,0.9,0.1,1.8,0.1,2.7c0,0.9,0,1.8,0.3,2.7c0,0,0,0.1,0,0.1
			c-1.7,1.5-1.2,3.4-1.2,5.3c0,0.3,0,0.5-0.1,0.8c-0.5,0.2,0.1,0.9-0.5,1c-0.3-1.9,0-3.9-0.1-5.8c0.1-0.3,0-0.7,0.1-1
			c0.1-0.7,0-1.4,0.1-2.2c0.8-0.9,0.7-1.8,0-2.7c0-0.4-0.1-0.8,0.2-1.1C23.5,33.6,23.9,33.6,24.3,33.5z"/>
		<path class="st17" d="M21.2,3.4c0-0.2,0-0.5,0-0.7c0.3-0.2,0.5-0.1,0.6,0.1c0.3,0.8,0.9,1.5,1,2.3c0,0.8,0,1.6,0,2.3
			c-0.1,0.4-0.5,0.7-0.8,0.5c-0.6-0.5-1.7-0.5-1.8-1.5C20.5,5.4,20.5,4.3,21.2,3.4z"/>
		<path class="st18" d="M22.7,7.7c0-0.9,0-1.8,0-2.7c-0.2-1.1-0.7-2.3,0-3.4c0.5-0.3,0.4,0.1,0.4,0.4c0,3.7,0,7.4,0,11.1
			c0,0.3-0.1,0.6-0.4,0.6c-0.3-0.3-0.3-0.7-0.4-1c0-0.7,0-1.3,0-2C22.4,9.8,22.1,8.7,22.7,7.7z"/>
		<path class="st19" d="M24.6,3.6c0,1,0,1.9,0,2.9c0,2.4,0,4.9,0,7.3c-0.5-0.3-0.4-0.7-0.4-1.2c0-3.4,0-6.9,0-10.3
			c0-0.3-0.3-1.2,0.7-0.7C25,2.4,25,3,24.6,3.6z"/>
		<path class="st20" d="M19.5,8.4C19.9,8,19.8,7.5,20,7c-0.1-0.1,0-0.2,0.1-0.3c0.5,0.3,0.4,0.7,0.4,1.2c0,0.2-0.1,0.5-0.2,0.7
			c-0.1,0.8-0.4,1.5-0.5,2.3c0,0.4,0,0.7,0,1.1c-0.1,1.3-0.7,2.5-0.3,3.8c-0.4,0.5-1.1,0.2-1.5,0.8C18.5,13.9,19,11.2,19.5,8.4z"/>
		<path class="st21" d="M20.1,6.8C20,6.8,20,6.9,20,7c-0.5-0.9-1.4-1.5-1.6-2.6c0.6-0.7,1.4-1,2.2-1.5c0.5,0,0.3,0.5,0.4,0.8
			C20.7,4.7,20.7,5.8,20.1,6.8z"/>
		<path class="st22" d="M19.5,15.9C19.1,16,18.8,16,19,15.4c0.2-1.1,0.4-2.2,0.6-3.3c0.6,0.5,1.1,1.2,1.9,1.4
			c0.4,0.1,0.4,0.5,0.2,0.9C21,14.9,20.3,15.4,19.5,15.9z"/>
		<path class="st23" d="M21.7,14.4c-0.1-0.3-0.1-0.8-0.6-0.9c-0.9-0.1-1.3-0.7-1.5-1.5c0-0.4,0-0.8,0.1-1.2c0.8-0.1,1.3,0.4,1.8,0.9
			c0.4,0.4,0.8,0.8,1.3,1c0,0.3,0,0.7,0,1C22.4,14.1,22.1,14.3,21.7,14.4z"/>
		<path class="st24" d="M35.2,7.9c-0.8,0.5-1.7,0.6-2.6,0.3c-0.5-0.2-1.2-0.2-1.1-0.8c0-0.5,0.4-1.1,1.1-1.1
			C33.4,6.9,34.3,7.4,35.2,7.9z"/>
		<path class="st25" d="M42.9,23.3c-0.1,0.1-0.2,0.4-0.4,0.3c-0.6-1.3-0.3-2.7-0.4-4.1c0-0.8,0-1.5,0-2.3c0-0.4,0-1,0.6-1.1
			c0,0,0.1,0,0.1,0C42.8,18.5,42.9,20.9,42.9,23.3z"/>
		<path class="st26" d="M24.6,3.6c0-0.7-0.1-1.3,0.3-2c0.7,0.3,1.3,0.7,1.9,1.2C26.3,3.8,25.6,4.2,24.6,3.6z"/>
		<path class="st27" d="M10.6,17.3c0.1,0.2,0.2,0.3,0.2,0.5c-0.5,1.4-0.7,2.9-2.2,3.6c-0.2-0.1-0.3-0.2-0.5-0.2
			c0.2-0.3,0.8-0.4,0.8-0.9c0.2-0.8,0.6-1.5,0.9-2.3C10,17.7,10.2,17.3,10.6,17.3z"/>
		<path class="st28" d="M5.5,19.1c0,0.4-0.5,0.4-0.7,0.7c-0.3,1.2,0.1,2.4-0.2,3.6c-0.3-0.1-0.3-0.3-0.3-0.6c0-2.9,0-5.7,0-8.6
			c0-0.2,0.1-0.4,0.2-0.7c0,0.1,0.1,0.2,0.1,0.3c0.2,1.5-0.1,3,0.3,4.4C5,18.4,5,18.6,5.2,18.7C5.3,18.8,5.5,18.9,5.5,19.1z"/>
		<path class="st29" d="M23.4,45.3c-0.1-0.2-0.1-0.3-0.2-0.5c0.7-0.6,0.7-1.4,0.4-2.2c-0.2-0.5-0.3-1-0.2-1.5
			c0.1-0.5,0.3-0.9,0.9-0.6c0,0.2,0,0.5,0,0.7c0.2,1.7,0.2,3.4,0,5.1c0,0.1,0,0.2,0,0.2c-0.3-0.2-0.2-0.5-0.3-0.8
			C24,45.2,23.8,45.1,23.4,45.3z"/>
		<path class="st30" d="M22.7,1.7c0,1.1,0,2.3,0,3.4c-0.5-0.8-0.9-1.6-1.4-2.4C21.6,2.2,22.1,1.9,22.7,1.7z"/>
		<path class="st31" d="M33.1,29.1c-0.5,0.3-1,0.7-1.5,0.9c-0.5,0.2-1,0.4-1.5,0c0.5-0.4,1-0.7,1.5-1.1c0.5-0.6,0.9-0.5,1.4,0l0,0
			C33.1,29,33.1,29,33.1,29.1C33.1,29.1,33.1,29.1,33.1,29.1z"/>
		<path class="st32" d="M20.1,6.8c0.2-1,0.5-2.1,0.7-3.1c0.1-0.1,0.1-0.3,0.2-0.3c0.1,0,0.1,0,0.2,0c-0.2,1-0.4,2.1-0.6,3.1
			C20.5,7,21.1,7.7,20.3,8C20.2,7.6,20.4,7.1,20.1,6.8z"/>
		<path class="st33" d="M23.2,39.5c0,0.3,0,0.6-0.2,0.7c-0.1,0.1-0.2,0.1-0.2,0c-0.5-0.7-1.4-0.8-2-1.4c0.2,0,0.4,0,0.5-0.2
			c0.6,0,1,0.5,1.5,0.7C22.9,39.3,23,39.4,23.2,39.5z"/>
		<path class="st34" d="M12.3,24.3c0.2-0.2,0.3-0.3,0.5-0.5c0.5-0.2,0.9-0.5,1.4-0.7c0.2,0.2,0.3,0.4,0.5,0.5
			c-0.1,0.1-0.2,0.3-0.4,0.2c-0.5,0.2-1,0.5-1.4,0.7C12.5,24.7,12.3,24.8,12.3,24.3z"/>
		<path class="st35" d="M22.7,40.2c0.1,0,0.2,0,0.2,0c0,2,0,4,0,6.1c-0.2-0.1-0.3,0.4-0.5,0c0.5-1.3,0.2-2.7,0.2-4
			C22.7,41.6,22.7,40.9,22.7,40.2z"/>
		<path class="st36" d="M23.2,39.5c-0.2,0-0.4,0-0.5-0.2c0,0,0-0.1,0-0.1c0.3-1.4,0-2.8,0.1-4.1c0-0.5-0.1-1,0.1-1.5
			c0.1,0,0.2,0,0.2,0c0,0.4,0,0.8,0.1,1.2c0.3,0.8,0.5,1.6,0,2.4C23.2,37.9,23.2,38.7,23.2,39.5z"/>
		<path class="st37" d="M22.9,33.5c0,1.5,0,3.1,0,4.6c0,0.3,0.2,0.8-0.2,1c0-1.6,0-3.1,0-4.7c0-0.3,0-0.7,0-1
			C22.8,33.4,22.9,33.5,22.9,33.5z"/>
		<path class="st38" d="M33.1,29.1c0-0.1-0.1-0.1-0.1-0.2c0.4-0.3,0.3-0.6-0.1-0.8c-0.3-0.2-0.6-0.3-0.6-0.7
			c0.6,0.4,1.3,0.8,1.9,1.2c-0.2,0.3-0.3,0.5-0.5,0.8C33.5,29.3,33.3,29.2,33.1,29.1z"/>
		<path class="st39" d="M16.7,35.9c0.8,0.5,1.6,0.9,2.4,1.4c-0.1,0.1-0.2,0.2-0.3,0.3c-0.8-0.5-1.6-1-2.4-1.5
			C16.4,35.9,16.4,35.8,16.7,35.9z"/>
		<path class="st40" d="M14.3,23.9c0.1-0.1,0.3-0.2,0.4-0.2c0.1,1.2,0.1,2.4,0,3.5c-0.4-0.7-0.1-1.4-0.2-2.1
			C14.5,24.7,14.5,24.3,14.3,23.9z"/>
		<path class="st41" d="M14.7,22.4c-0.4-1.2-0.2-2.4-0.1-3.6c0,0,0.1,0,0.1,0c0,0,0.1,0,0.1,0.1C14.8,20.1,14.7,21.2,14.7,22.4z"/>
		<path class="st38" d="M33,28.9c-0.5-0.2-0.9-0.3-1.4,0C32.1,28,32.5,28,33,28.9z"/>
		<path class="st42" d="M32.5,41.5c-0.2-0.1-0.7-0.1-0.4-0.4c0.3-0.4,0.7-0.3,0.9,0.2C32.8,41.2,32.6,41.2,32.5,41.5z"/>
		<path class="st43" d="M21,3.4c-0.1,0.1-0.2,0.2-0.2,0.3C20.7,3.4,21,3,20.5,2.9c0.1-0.2,0.2-0.3,0.4-0.2C21.2,2.8,21,3.1,21,3.4z"
			/>
		<path class="st44" d="M42.7,16.1c-0.6,1.1-0.1,2.3-0.3,3.4c-0.7,0.7-1,1.4-0.3,2.4c0.4,0.6,0.3,0.7-0.4,1.3
			c-1.4-0.7-2.9-1.4-4.2-2.4c0.7-0.7,0.4-1.2-0.2-1.7c1.6-1.2,3.4-2,5.1-3C42.5,16,42.6,16.1,42.7,16.1z"/>
		<path class="st45" d="M37.3,19c0.5,0.1,1,0.3,1.1,0.8c0.1,0.5-0.5,0.7-0.9,0.9c-0.6-0.2-1.1-0.5-1.6-1
			C36.3,19.4,36.8,19.2,37.3,19z"/>
		<path class="st46" d="M34.9,19.9c-0.6,0.1-0.9-0.1-1.3-0.5C34.2,19.2,34.5,19.4,34.9,19.9z"/>
		<path class="st47" d="M25.6,38.8c2.1-1.6,4.4-2.8,6.6-4.2c0.3-0.2,0.6-0.3,0.7,0c0.2,0.4-0.2,0.6-0.5,0.7
			c-2.2,1.4-4.4,2.8-6.6,4.2C25.2,39.4,25.4,39.1,25.6,38.8z"/>
		<path class="st48" d="M25.6,38.8c0,0.3,0,0.5,0.2,0.7c-0.5,0.3-0.9,0.7-1.4,1c-1,0.2-0.9,1-0.6,1.5c0.3,0.7,0.3,1.3,0.3,1.9
			c0.1,0.7-0.3,0.9-0.9,0.8c0-0.8,0-1.7,0-2.5c-0.1-1.3,0.1-2.4,1.5-3c0.1-0.4,0.3-0.6,0.7-0.6C25.4,38.8,25.5,38.8,25.6,38.8z"/>
		<path class="st49" d="M25.3,38.8c-0.2,0.2-0.5,0.4-0.7,0.6c-0.3-0.1-0.3-0.4-0.3-0.7c0-1.6,0-3.3,0.1-4.9c0.5,1,0.2,2.1,0.2,3.2
			C24.6,37.7,24.7,38.3,25.3,38.8z"/>
		<path class="st50" d="M24.4,46.3c0-1.7,0-3.4,0-5.1C24.8,42.9,24.8,44.6,24.4,46.3z"/>
		<path class="st51" d="M16.7,35.9c-0.1,0.1-0.1,0.1-0.2,0.2c-0.2-0.2-0.4-0.3-0.8-0.5C16.2,35.4,16.4,35.7,16.7,35.9z"/>
		<path class="st52" d="M36.8,29.9c-0.8-0.3-1.6-0.8-2.3-1.3c0.7-0.5,1.5-0.4,2.3-0.4c0.4,0,0.8-0.1,0.9,0.3
			c0.2,0.4-0.2,0.6-0.4,0.9C37.2,29.6,37,29.7,36.8,29.9z"/>
		<ellipse class="st53" cx="42.5" cy="29.3" rx="0.1" ry="3.5"/>
		<path class="st53" d="M42.5,24.8c0.1,0.1,0.1,0.1,0.2,0.2c0,0.2-0.1,0.4-0.1,0.7C42.4,25.3,42.2,25.1,42.5,24.8z"/>
		<path class="st54" d="M12.3,24.3c0.1,0.3,0.3,0.2,0.5,0.3c-0.6,0.4-1.1,0.7-2.1,0.9C11.3,24.9,11.8,24.6,12.3,24.3z"/>
		<path class="st55" d="M5.5,19.1c-0.2,0-0.3,0-0.5,0c-0.6-0.5-0.3-1.1-0.2-1.7c0.4,0.2,0.7,0.6,1.2,0.2c0.4-0.3,0.9-0.1,1.4-0.1
			c0.8,0,1.6,0.1,2.2-0.4c0.3-0.2,0.6-0.3,0.9,0.1c0,0.1,0,0.1,0,0.2c-0.7,0.9-0.6,2.2-1.6,3c-0.7-0.6-1.5-1.1-2.2-1.7
			c-0.5-0.2-0.6,0.3-0.9,0.4C5.8,19,5.7,19,5.5,19.1z"/>
		<path class="st56" d="M5.9,19c0.1-0.6,0.4-0.8,0.9-0.4C6.5,18.7,6.2,18.9,5.9,19z"/>
		<path class="st57" d="M41.7,23.1c0.4-0.5,0.5-0.8,0.1-1.4c-0.9-1.2-0.7-1.4,0.7-2.2c0,1.4,0,2.7,0,4.1
			C42.2,23.4,42,23.3,41.7,23.1z"/>
		<path class="st58" d="M23.2,37.1c0-0.8,0-1.6,0-2.4C24.2,35.8,24.2,36.3,23.2,37.1z"/>
		<path class="st59" d="M24.1,38.6c-0.1,0.3,0.1,0.7-0.4,0.7c-0.3,0-0.3-0.4-0.3-0.7c0-0.3,0-0.7,0.4-0.7C24.2,38,24,38.4,24.1,38.6
			z"/>
		<path class="st14" d="M20.3,8c0.3-0.5,0.3-1,0.3-1.5c0.6,0.6,1.1,1.2,2.1,1.2c0,1,0,2.1,0,3.1c-1.3-0.3-2-1.3-2.6-2.4
			C20.2,8.3,20.2,8.2,20.3,8z"/>
		<path class="st60" d="M20.1,8.5c0.9,0.8,1.7,1.6,2.6,2.4c0,0.6,0,1.3,0,1.9c-0.1,0-0.3,0.1-0.3,0.1c-1-0.6-1.7-1.5-2.7-2
			C19.7,10,20.2,9.3,20.1,8.5z"/>
		<path class="st61" d="M23.8,13.5"/>
	</g>
	<text transform="matrix(1 0 0 1 54.8329 32.4398)" class="st62 st63 st64">DEKA</text>
</g>
</svg>
